<svg viewBox="0 0 512 512" xmlns="http://www.w3.org/2000/svg" xmlns:xlink="http://www.w3.org/1999/xlink"><linearGradient id="a" gradientTransform="matrix(1 0 0 -1 0 -12310)" gradientUnits="userSpaceOnUse" x1="0" x2="512" y1="-12566" y2="-12566"><stop offset="0" stop-color="#00f1ff"/><stop offset=".231" stop-color="#00d8ff"/><stop offset=".5138" stop-color="#00c0ff"/><stop offset=".7773" stop-color="#00b2ff"/><stop offset="1" stop-color="#00adff"/></linearGradient><path d="m512 256c0 141.386719-114.613281 256-256 256s-256-114.613281-256-256 114.613281-256 256-256 256 114.613281 256 256zm0 0" fill="url(#a)"/><g fill="#fff"><path d="m85.152344 332.261719c14.167968 0 27.9375-7.878907 40.917968-23.417969.300782-.363281 1.023438-.605469 1.792969-.605469.773438 0 1.492188.242188 1.792969.605469 12.984375 15.539062 26.75 23.417969 40.917969 23.417969s27.9375-7.878907 40.917969-23.417969c.304687-.363281 1.023437-.605469 1.792968-.605469.773438 0 1.492188.242188 1.796875.605469 12.980469 15.539062 26.746094 23.417969 40.914063 23.417969 14.171875 0 27.9375-7.878907 40.917968-23.417969.304688-.363281 1.023438-.605469 1.796876-.605469.769531 0 1.488281.242188 1.792968.605469 12.980469 15.539062 26.75 23.417969 40.917969 23.417969s27.9375-7.878907 40.917969-23.417969c.300781-.363281 1.019531-.605469 1.792968-.605469.769532 0 1.492188.242188 1.792969.605469 12.980469 15.539062 26.75 23.417969 40.917969 23.417969 8.285156 0 15-6.714844 15-15 0-8.28125-6.714844-15-15-15-4.585938 0-11.273438-4.730469-17.894531-12.652344-6.035157-7.226563-15.082031-11.371094-24.816407-11.371094-9.738281 0-18.78125 4.144531-24.820312 11.371094-6.617188 7.921875-13.304688 12.652344-17.890625 12.652344s-11.277344-4.730469-17.894531-12.652344c-6.039063-7.226563-15.085938-11.371094-24.820313-11.371094s-18.78125 4.144531-24.816406 11.371094c-6.621094 7.921875-13.308594 12.652344-17.894531 12.652344-4.585938 0-11.273438-4.730469-17.894532-12.652344-6.035156-7.226563-15.082031-11.371094-24.816406-11.371094s-18.78125 4.144531-24.820312 11.371094c-6.617188 7.925781-13.304688 12.65625-17.894532 12.65625-4.585937 0-11.273437-4.730469-17.890624-12.652344-6.039063-7.230469-15.082032-11.375-24.820313-11.375-9.734375 0-18.78125 4.148438-24.816406 11.375-6.617188 7.921875-13.308594 12.652344-17.894531 12.652344-8.285157 0-15 6.714844-15 15s6.71875 14.996094 15.003906 14.996094zm0 0"/><path d="m426.847656 369c-4.585937 0-11.273437-4.730469-17.894531-12.652344-6.035156-7.226562-15.082031-11.371094-24.816406-11.371094-9.738281 0-18.78125 4.144532-24.820313 11.371094-6.617187 7.921875-13.304687 12.652344-17.890625 12.652344-4.585937 0-11.277343-4.730469-17.894531-12.652344-6.039062-7.226562-15.085938-11.371094-24.820312-11.371094-9.734376 0-18.78125 4.144532-24.816407 11.371094-6.621093 7.921875-13.308593 12.652344-17.894531 12.652344s-11.273438-4.730469-17.894531-12.652344c-6.035157-7.226562-15.082031-11.371094-24.816407-11.371094-9.734374 0-18.78125 4.144532-24.820312 11.371094-6.617188 7.921875-13.304688 12.652344-17.894531 12.652344-4.585938 0-11.273438-4.730469-17.890625-12.652344-6.039063-7.226562-15.082032-11.371094-24.820313-11.371094-9.734375 0-18.78125 4.144532-24.816406 11.371094-6.617187 7.921875-13.308594 12.652344-17.894531 12.652344-8.285156 0-15 6.714844-15 15s6.714844 15 15 15c14.167968 0 27.9375-7.878906 40.917968-23.421875.300782-.359375 1.023438-.601563 1.792969-.601563.773438 0 1.492188.242188 1.792969.601563 12.984375 15.542969 26.75 23.421875 40.917969 23.421875 14.171875 0 27.9375-7.878906 40.917969-23.421875.304687-.359375 1.023437-.601563 1.796874-.601563.769532 0 1.492188.242188 1.792969.601563 12.980469 15.542969 26.746094 23.421875 40.917969 23.421875s27.9375-7.878906 40.917969-23.421875c.300781-.359375 1.023437-.601563 1.792969-.601563.769531 0 1.492187.242188 1.792968.601563 12.984375 15.542969 26.75 23.421875 40.921875 23.421875 14.167969 0 27.933594-7.878906 40.914063-23.421875.304687-.359375 1.023437-.601563 1.796875-.601563.769531 0 1.492187.242188 1.792969.601563 12.980468 15.542969 26.75 23.421875 40.917968 23.421875 8.285156 0 15-6.714844 15-15s-6.714844-15-15-15zm0 0"/><path d="m227.054688 243.304688c8.121093 8.125 18.792968 12.1875 29.46875 12.1875 10.6875 0 21.378906-4.074219 29.527343-12.222657l40.652344-40.898437c5.839844-5.875 5.808594-15.375-.066406-21.214844s-15.371094-5.808594-21.210938.066406l-34.425781 34.632813v-146.855469c0-8.285156-6.714844-15-15-15s-15 6.714844-15 15v145.851562l-33.808594-33.679687c-5.871094-5.847656-15.367187-5.832031-21.214844.039063-5.847656 5.867187-5.828124 15.367187.042969 21.214843zm0 0"/></g></svg>